<svg xmlns="http://www.w3.org/2000/svg" xmlns:xlink="http://www.w3.org/1999/xlink" width="500" zoomAndPan="magnify" viewBox="0 0 375 374.999991" height="500" preserveAspectRatio="xMidYMid meet" version="1.0"><defs><g/><clipPath id="id1"><path d="M 87.515625 226.636719 L 97.730469 226.636719 L 97.730469 251.683594 L 87.515625 251.683594 Z M 87.515625 226.636719 " clip-rule="nonzero"/></clipPath><clipPath id="id2"><path d="M 62.640625 227.308594 L 72.992188 227.308594 L 72.992188 251.683594 L 62.640625 251.683594 Z M 62.640625 227.308594 " clip-rule="nonzero"/></clipPath><clipPath id="id3"><path d="M 17 109.933594 L 194.742188 109.933594 L 194.742188 221 L 17 221 Z M 17 109.933594 " clip-rule="nonzero"/></clipPath><clipPath id="id4"><path d="M 113 138 L 177 138 L 177 195 L 113 195 Z M 113 138 " clip-rule="nonzero"/></clipPath><clipPath id="id5"><path d="M 96.449219 152.808594 L 158.917969 125.320312 L 177.648438 167.882812 L 115.175781 195.371094 Z M 96.449219 152.808594 " clip-rule="nonzero"/></clipPath><clipPath id="id6"><path d="M 96.449219 152.808594 L 158.917969 125.320312 L 177.648438 167.882812 L 115.175781 195.371094 Z M 96.449219 152.808594 " clip-rule="nonzero"/></clipPath><clipPath id="id7"><path d="M 96.449219 152.808594 L 158.917969 125.320312 L 177.648438 167.882812 L 115.175781 195.371094 Z M 96.449219 152.808594 " clip-rule="nonzero"/></clipPath><clipPath id="id8"><path d="M 131 82 L 165 82 L 165 138 L 131 138 Z M 131 82 " clip-rule="nonzero"/></clipPath><clipPath id="id9"><path d="M 137.460938 79.074219 L 168.40625 84.953125 L 157.773438 140.953125 L 126.824219 135.074219 Z M 137.460938 79.074219 " clip-rule="nonzero"/></clipPath><clipPath id="id10"><path d="M 137.460938 79.074219 L 168.40625 84.953125 L 157.773438 140.953125 L 126.824219 135.074219 Z M 137.460938 79.074219 " clip-rule="nonzero"/></clipPath><clipPath id="id11"><path d="M 137.460938 79.074219 L 168.40625 84.953125 L 157.773438 140.953125 L 126.824219 135.074219 Z M 137.460938 79.074219 " clip-rule="nonzero"/></clipPath><clipPath id="id12"><path d="M 137.460938 79.074219 L 168.40625 84.953125 L 157.761719 140.996094 L 126.816406 135.121094 Z M 137.460938 79.074219 " clip-rule="nonzero"/></clipPath><clipPath id="id13"><path d="M 137.460938 79.074219 L 168.402344 84.953125 L 157.769531 140.949219 L 126.828125 135.074219 Z M 137.460938 79.074219 " clip-rule="nonzero"/></clipPath><clipPath id="id14"><path d="M 131 119 L 140 119 L 140 131 L 131 131 Z M 131 119 " clip-rule="nonzero"/></clipPath><clipPath id="id15"><path d="M 137.460938 79.074219 L 168.40625 84.953125 L 157.773438 140.953125 L 126.824219 135.074219 Z M 137.460938 79.074219 " clip-rule="nonzero"/></clipPath><clipPath id="id16"><path d="M 137.460938 79.074219 L 168.40625 84.953125 L 157.773438 140.953125 L 126.824219 135.074219 Z M 137.460938 79.074219 " clip-rule="nonzero"/></clipPath><clipPath id="id17"><path d="M 137.460938 79.074219 L 168.40625 84.953125 L 157.773438 140.953125 L 126.824219 135.074219 Z M 137.460938 79.074219 " clip-rule="nonzero"/></clipPath><clipPath id="id18"><path d="M 138 82 L 165 82 L 165 138 L 138 138 Z M 138 82 " clip-rule="nonzero"/></clipPath><clipPath id="id19"><path d="M 137.460938 79.074219 L 168.40625 84.953125 L 157.773438 140.953125 L 126.824219 135.074219 Z M 137.460938 79.074219 " clip-rule="nonzero"/></clipPath><clipPath id="id20"><path d="M 137.460938 79.074219 L 168.40625 84.953125 L 157.773438 140.953125 L 126.824219 135.074219 Z M 137.460938 79.074219 " clip-rule="nonzero"/></clipPath><clipPath id="id21"><path d="M 137.460938 79.074219 L 168.40625 84.953125 L 157.773438 140.953125 L 126.824219 135.074219 Z M 137.460938 79.074219 " clip-rule="nonzero"/></clipPath><clipPath id="id22"><path d="M 148.117188 81.097656 L 168.40625 84.953125 L 157.761719 140.996094 L 137.472656 137.144531 Z M 148.117188 81.097656 " clip-rule="nonzero"/></clipPath><clipPath id="id23"><path d="M 148.117188 81.097656 L 168.402344 84.953125 L 157.769531 140.949219 L 137.480469 137.097656 Z M 148.117188 81.097656 " clip-rule="nonzero"/></clipPath></defs><g clip-path="url(#id1)"><path fill="#2e2f38" d="M 96.253906 226.734375 C 93.539062 227.367188 90.675781 227.890625 87.632812 228.292969 L 87.632812 246.714844 C 87.632812 249.460938 89.863281 251.691406 92.613281 251.691406 L 92.734375 251.691406 C 95.628906 251.691406 97.910156 249.234375 97.699219 246.347656 L 96.253906 226.734375 " fill-opacity="1" fill-rule="nonzero"/></g><g clip-path="url(#id2)"><path fill="#80cc28" d="M 72.117188 228.875 C 69.238281 228.605469 66.402344 228.097656 63.636719 227.382812 L 62.753906 246.363281 C 62.617188 249.265625 64.933594 251.691406 67.835938 251.691406 L 67.851562 251.691406 C 70.753906 251.691406 73.070312 249.265625 72.933594 246.363281 L 72.117188 228.875 " fill-opacity="1" fill-rule="nonzero"/></g><path fill="#80cc28" d="M 64.238281 214.488281 C 66.605469 214.992188 69.027344 215.359375 71.5 215.585938 L 69.832031 179.84375 C 69.796875 179.085938 70.144531 178.363281 70.753906 177.914062 C 75.09375 174.738281 77.484375 169.546875 77.070312 164.183594 L 76.527344 157.128906 L 74.457031 130.230469 C 74.4375 129.933594 74.226562 129.667969 73.929688 129.617188 C 73.527344 129.546875 73.175781 129.851562 73.171875 130.242188 L 72.8125 156.617188 C 72.808594 156.898438 72.578125 157.128906 72.296875 157.128906 L 72.082031 157.128906 C 71.800781 157.128906 71.574219 156.90625 71.5625 156.628906 L 70.574219 130.226562 C 70.5625 129.882812 70.277344 129.609375 69.929688 129.609375 L 69.910156 129.609375 C 69.566406 129.609375 69.28125 129.882812 69.269531 130.230469 L 68.359375 156.628906 C 68.351562 156.90625 68.121094 157.128906 67.84375 157.128906 C 67.5625 157.128906 67.335938 156.90625 67.324219 156.628906 L 66.417969 130.230469 C 66.40625 129.882812 66.121094 129.609375 65.773438 129.609375 L 65.753906 129.609375 C 65.410156 129.609375 65.125 129.882812 65.113281 130.226562 L 64.121094 156.628906 C 64.113281 156.90625 63.882812 157.128906 63.605469 157.128906 L 63.390625 157.128906 C 63.109375 157.128906 62.875 156.898438 62.875 156.617188 L 62.515625 130.273438 C 62.511719 129.964844 62.300781 129.679688 62 129.621094 C 61.609375 129.542969 61.257812 129.824219 61.230469 130.203125 L 59.15625 157.128906 L 58.644531 163.8125 C 58.222656 169.269531 60.480469 174.707031 64.917969 177.90625 C 65.539062 178.351562 65.890625 179.082031 65.855469 179.84375 L 64.238281 214.488281 " fill-opacity="1" fill-rule="nonzero"/><path fill="#2e2f38" d="M 95.328125 214.164062 L 93.550781 189.988281 L 99.667969 185.546875 C 99.667969 141.347656 87.632812 129.609375 87.632812 129.609375 L 87.632812 215.3125 C 90.257812 215.03125 92.820312 214.640625 95.328125 214.164062 " fill-opacity="1" fill-rule="nonzero"/><g clip-path="url(#id3)"><path fill="#80cc28" d="M 75.921875 213.046875 C 46.90625 212.464844 23.140625 192.222656 23.140625 163.203125 C 23.140625 134.183594 46.667969 110.660156 75.6875 110.660156 C 78.421875 110.660156 81.109375 110.871094 83.734375 111.273438 C 79.851562 110.398438 75.8125 109.933594 71.667969 109.933594 C 41.507812 109.933594 17.058594 134.382812 17.058594 164.539062 C 17.058594 194.695312 41.53125 218.9375 71.667969 220.089844 C 98 221.097656 112.644531 212.789062 129.308594 204.722656 C 152.515625 193.492188 171.160156 180.203125 194.671875 184.222656 C 155.496094 173.058594 126.421875 214.0625 75.921875 213.046875 " fill-opacity="1" fill-rule="nonzero"/></g><path fill="#2e2f38" d="M 126.566406 212.988281 C 109.851562 220.949219 95.164062 228.222656 68.835938 227.054688 C 57.082031 226.53125 46.207031 222.644531 37.332031 216.304688 C 48.300781 226.324219 63.535156 233.285156 79.675781 232.410156 C 105.992188 230.984375 119.769531 220.957031 135.621094 211.390625 C 142.742188 207.09375 149.367188 202.625 155.878906 198.605469 C 146.464844 202.660156 136.96875 208.03125 126.566406 212.988281 " fill-opacity="1" fill-rule="nonzero"/><g clip-path="url(#id4)"><g clip-path="url(#id5)"><g clip-path="url(#id6)"><g clip-path="url(#id7)"><path fill="#2e2f38" d="M 134.421875 154.378906 C 146.433594 149.09375 160.441406 154.507812 165.792969 166.472656 L 122.148438 185.675781 C 120.234375 181.257812 119.765625 176.574219 120.527344 172.15625 C 120.707031 171.132812 122.929688 167.285156 130.167969 166.472656 C 141.578125 165.195312 148.921875 162.429688 148.921875 162.429688 C 133.351562 163.460938 129.472656 156.554688 134.421875 154.378906 Z M 172.429688 163.550781 L 171.683594 163.878906 C 165.398438 149.773438 149.636719 142.824219 135.210938 147.230469 C 136.042969 145.691406 136.179688 143.800781 135.421875 142.078125 C 134.117188 139.109375 130.652344 137.765625 127.6875 139.070312 C 124.722656 140.375 123.375 143.835938 124.679688 146.804688 C 125.4375 148.527344 126.925781 149.703125 128.621094 150.128906 C 115.625 157.789062 110.101562 174.105469 116.257812 188.269531 L 115.511719 188.597656 C 113.980469 189.269531 113.28125 191.0625 113.957031 192.59375 C 114.632812 194.128906 116.421875 194.824219 117.953125 194.148438 L 174.871094 169.105469 C 176.402344 168.429688 177.101562 166.640625 176.425781 165.105469 C 175.75 163.574219 173.960938 162.878906 172.429688 163.550781 " fill-opacity="1" fill-rule="nonzero"/></g></g></g></g><g clip-path="url(#id8)"><g clip-path="url(#id9)"><g clip-path="url(#id10)"><g clip-path="url(#id11)"><g clip-path="url(#id12)"><g clip-path="url(#id13)"><path fill="#80cc28" d="M 156.140625 82.625 C 158.726562 89.863281 142.839844 90.964844 135.550781 100.535156 C 128.550781 109.734375 131.15625 123.199219 136.25 130.289062 C 137.023438 126.671875 138.539062 122.121094 141 116.578125 C 141.5625 115.308594 141.53125 113.875 140.742188 112.734375 C 139.660156 111.164062 139.410156 108.863281 140.746094 106.019531 C 142.738281 101.792969 148.429688 98.417969 150.984375 99.617188 C 153.542969 100.816406 153.484375 105.910156 151.496094 110.136719 C 150.160156 112.980469 148.003906 114.589844 145.519531 114.976562 C 144.144531 115.1875 142.914062 115.945312 142.390625 117.230469 C 136.949219 130.578125 139.394531 137.460938 139.394531 137.460938 C 142.230469 124.785156 155.5625 123.769531 161.859375 112.941406 C 168.511719 101.503906 162.335938 88.429688 156.140625 82.625 " fill-opacity="1" fill-rule="nonzero"/></g></g></g></g></g></g><g clip-path="url(#id14)"><g clip-path="url(#id15)"><g clip-path="url(#id16)"><g clip-path="url(#id17)"><path fill="#74ba24" d="M 134.496094 120.125 C 133.570312 119.949219 132.667969 119.71875 131.792969 119.441406 C 132.582031 123.621094 134.21875 127.460938 136.25 130.289062 C 136.832031 127.570312 137.832031 124.324219 139.335938 120.527344 C 137.746094 120.5625 136.125 120.433594 134.496094 120.125 " fill-opacity="1" fill-rule="nonzero"/></g></g></g></g><g clip-path="url(#id18)"><g clip-path="url(#id19)"><g clip-path="url(#id20)"><g clip-path="url(#id21)"><g clip-path="url(#id22)"><g clip-path="url(#id23)"><path fill="#74ba24" d="M 156.140625 82.625 C 160.566406 87.738281 162.699219 94.742188 161.339844 101.894531 C 159.410156 112.066406 151.015625 119.378906 141.199219 120.410156 C 137.335938 131.667969 139.394531 137.460938 139.394531 137.460938 C 142.230469 124.785156 155.5625 123.769531 161.859375 112.941406 C 168.511719 101.503906 162.335938 88.429688 156.140625 82.625 " fill-opacity="1" fill-rule="nonzero"/></g></g></g></g></g></g><g fill="#2e2f38" fill-opacity="1"><g transform="translate(119.951722, 245.564504)"><g><path d="M 11.6875 -16.734375 C 10.320312 -16.734375 9.257812 -16.175781 8.5 -15.0625 C 7.738281 -13.957031 7.359375 -12.425781 7.359375 -10.46875 C 7.359375 -6.40625 8.90625 -4.375 12 -4.375 C 12.9375 -4.375 13.84375 -4.503906 14.71875 -4.765625 C 15.59375 -5.023438 16.472656 -5.335938 17.359375 -5.703125 L 17.359375 -0.875 C 15.597656 -0.101562 13.601562 0.28125 11.375 0.28125 C 8.1875 0.28125 5.742188 -0.640625 4.046875 -2.484375 C 2.347656 -4.328125 1.5 -7 1.5 -10.5 C 1.5 -12.6875 1.910156 -14.609375 2.734375 -16.265625 C 3.554688 -17.921875 4.738281 -19.191406 6.28125 -20.078125 C 7.832031 -20.972656 9.648438 -21.421875 11.734375 -21.421875 C 14.023438 -21.421875 16.207031 -20.925781 18.28125 -19.9375 L 16.53125 -15.4375 C 15.75 -15.800781 14.96875 -16.109375 14.1875 -16.359375 C 13.414062 -16.609375 12.582031 -16.734375 11.6875 -16.734375 Z M 11.6875 -16.734375 "/></g></g></g><g fill="#2e2f38" fill-opacity="1"><g transform="translate(139.144684, 245.564504)"><g><path d="M 17.578125 -8.21875 C 17.578125 -5.539062 16.859375 -3.453125 15.421875 -1.953125 C 13.984375 -0.460938 11.96875 0.28125 9.375 0.28125 C 6.882812 0.28125 4.90625 -0.476562 3.4375 -2 C 1.96875 -3.53125 1.234375 -5.601562 1.234375 -8.21875 C 1.234375 -10.882812 1.953125 -12.957031 3.390625 -14.4375 C 4.835938 -15.914062 6.859375 -16.65625 9.453125 -16.65625 C 11.066406 -16.65625 12.488281 -16.3125 13.71875 -15.625 C 14.945312 -14.9375 15.894531 -13.957031 16.5625 -12.6875 C 17.238281 -11.414062 17.578125 -9.925781 17.578125 -8.21875 Z M 6.96875 -8.21875 C 6.96875 -6.8125 7.15625 -5.738281 7.53125 -5 C 7.914062 -4.269531 8.550781 -3.90625 9.4375 -3.90625 C 10.3125 -3.90625 10.925781 -4.269531 11.28125 -5 C 11.644531 -5.738281 11.828125 -6.8125 11.828125 -8.21875 C 11.828125 -9.613281 11.644531 -10.664062 11.28125 -11.375 C 10.914062 -12.09375 10.289062 -12.453125 9.40625 -12.453125 C 8.539062 -12.453125 7.914062 -12.097656 7.53125 -11.390625 C 7.15625 -10.679688 6.96875 -9.625 6.96875 -8.21875 Z M 6.96875 -8.21875 "/></g></g></g><g fill="#2e2f38" fill-opacity="1"><g transform="translate(157.991047, 245.564504)"><g><path d="M 17.578125 -8.21875 C 17.578125 -5.539062 16.859375 -3.453125 15.421875 -1.953125 C 13.984375 -0.460938 11.96875 0.28125 9.375 0.28125 C 6.882812 0.28125 4.90625 -0.476562 3.4375 -2 C 1.96875 -3.53125 1.234375 -5.601562 1.234375 -8.21875 C 1.234375 -10.882812 1.953125 -12.957031 3.390625 -14.4375 C 4.835938 -15.914062 6.859375 -16.65625 9.453125 -16.65625 C 11.066406 -16.65625 12.488281 -16.3125 13.71875 -15.625 C 14.945312 -14.9375 15.894531 -13.957031 16.5625 -12.6875 C 17.238281 -11.414062 17.578125 -9.925781 17.578125 -8.21875 Z M 6.96875 -8.21875 C 6.96875 -6.8125 7.15625 -5.738281 7.53125 -5 C 7.914062 -4.269531 8.550781 -3.90625 9.4375 -3.90625 C 10.3125 -3.90625 10.925781 -4.269531 11.28125 -5 C 11.644531 -5.738281 11.828125 -6.8125 11.828125 -8.21875 C 11.828125 -9.613281 11.644531 -10.664062 11.28125 -11.375 C 10.914062 -12.09375 10.289062 -12.453125 9.40625 -12.453125 C 8.539062 -12.453125 7.914062 -12.097656 7.53125 -11.390625 C 7.15625 -10.679688 6.96875 -9.625 6.96875 -8.21875 Z M 6.96875 -8.21875 "/></g></g></g><g fill="#2e2f38" fill-opacity="1"><g transform="translate(176.837409, 245.564504)"><g><path d="M 7.421875 -9.203125 C 8.109375 -10.285156 8.691406 -11.128906 9.171875 -11.734375 L 12.84375 -16.359375 L 19.140625 -16.359375 L 13.453125 -9.40625 L 19.5 0 L 13.046875 0 L 9.453125 -5.859375 L 7.625 -4.46875 L 7.625 0 L 1.953125 0 L 1.953125 -22.46875 L 7.625 -22.46875 L 7.625 -13.640625 C 7.625 -12.117188 7.519531 -10.640625 7.3125 -9.203125 Z M 7.421875 -9.203125 "/></g></g></g><g fill="#2e2f38" fill-opacity="1"><g transform="translate(196.333639, 245.564504)"><g><path d="M 7.625 0 L 1.984375 0 L 1.984375 -16.359375 L 7.625 -16.359375 Z M 1.828125 -20.4375 C 1.828125 -21.28125 2.0625 -21.910156 2.53125 -22.328125 C 3.007812 -22.742188 3.773438 -22.953125 4.828125 -22.953125 C 5.867188 -22.953125 6.628906 -22.738281 7.109375 -22.3125 C 7.597656 -21.882812 7.84375 -21.257812 7.84375 -20.4375 C 7.84375 -18.78125 6.835938 -17.953125 4.828125 -17.953125 C 2.828125 -17.953125 1.828125 -18.78125 1.828125 -20.4375 Z M 1.828125 -20.4375 "/></g></g></g><g fill="#2e2f38" fill-opacity="1"><g transform="translate(205.951779, 245.564504)"><g><path d="M 12.28125 0 L 12.28125 -8.921875 C 12.28125 -10.015625 12.125 -10.835938 11.8125 -11.390625 C 11.5 -11.941406 10.992188 -12.21875 10.296875 -12.21875 C 9.347656 -12.21875 8.660156 -11.835938 8.234375 -11.078125 C 7.804688 -10.316406 7.59375 -9.007812 7.59375 -7.15625 L 7.59375 0 L 1.953125 0 L 1.953125 -16.359375 L 6.203125 -16.359375 L 6.921875 -14.34375 L 7.25 -14.34375 C 7.726562 -15.113281 8.394531 -15.691406 9.25 -16.078125 C 10.101562 -16.460938 11.082031 -16.65625 12.1875 -16.65625 C 14 -16.65625 15.40625 -16.128906 16.40625 -15.078125 C 17.414062 -14.023438 17.921875 -12.546875 17.921875 -10.640625 L 17.921875 0 Z M 12.28125 0 "/></g></g></g><g fill="#2e2f38" fill-opacity="1"><g transform="translate(225.765726, 245.564504)"><g><path d="M 17.390625 -16.359375 L 17.390625 -13.640625 L 15.15625 -12.8125 C 15.457031 -12.25 15.609375 -11.597656 15.609375 -10.859375 C 15.609375 -9.097656 14.988281 -7.726562 13.75 -6.75 C 12.519531 -5.78125 10.675781 -5.296875 8.21875 -5.296875 C 7.613281 -5.296875 7.132812 -5.335938 6.78125 -5.421875 C 6.644531 -5.171875 6.578125 -4.929688 6.578125 -4.703125 C 6.578125 -4.429688 6.800781 -4.21875 7.25 -4.0625 C 7.695312 -3.914062 8.289062 -3.84375 9.03125 -3.84375 L 11.734375 -3.84375 C 15.410156 -3.84375 17.25 -2.296875 17.25 0.796875 C 17.25 2.785156 16.394531 4.332031 14.6875 5.4375 C 12.988281 6.550781 10.601562 7.109375 7.53125 7.109375 C 5.21875 7.109375 3.429688 6.71875 2.171875 5.9375 C 0.910156 5.164062 0.28125 4.050781 0.28125 2.59375 C 0.28125 0.644531 1.492188 -0.613281 3.921875 -1.1875 C 3.421875 -1.394531 2.984375 -1.734375 2.609375 -2.203125 C 2.242188 -2.679688 2.0625 -3.148438 2.0625 -3.609375 C 2.0625 -4.117188 2.203125 -4.566406 2.484375 -4.953125 C 2.765625 -5.347656 3.347656 -5.816406 4.234375 -6.359375 C 3.378906 -6.734375 2.707031 -7.316406 2.21875 -8.109375 C 1.738281 -8.910156 1.5 -9.882812 1.5 -11.03125 C 1.5 -12.8125 2.101562 -14.191406 3.3125 -15.171875 C 4.53125 -16.160156 6.265625 -16.65625 8.515625 -16.65625 C 8.816406 -16.65625 9.332031 -16.617188 10.0625 -16.546875 C 10.789062 -16.484375 11.332031 -16.421875 11.6875 -16.359375 Z M 5.0625 2.03125 C 5.0625 2.5 5.3125 2.875 5.8125 3.15625 C 6.3125 3.4375 6.976562 3.578125 7.8125 3.578125 C 9.175781 3.578125 10.269531 3.40625 11.09375 3.0625 C 11.914062 2.726562 12.328125 2.289062 12.328125 1.75 C 12.328125 1.3125 12.078125 1.003906 11.578125 0.828125 C 11.078125 0.648438 10.363281 0.5625 9.4375 0.5625 L 7.21875 0.5625 C 6.613281 0.5625 6.101562 0.703125 5.6875 0.984375 C 5.269531 1.273438 5.0625 1.625 5.0625 2.03125 Z M 6.828125 -11 C 6.828125 -9.320312 7.410156 -8.484375 8.578125 -8.484375 C 9.117188 -8.484375 9.535156 -8.691406 9.828125 -9.109375 C 10.117188 -9.523438 10.265625 -10.144531 10.265625 -10.96875 C 10.265625 -12.664062 9.703125 -13.515625 8.578125 -13.515625 C 7.410156 -13.515625 6.828125 -12.675781 6.828125 -11 Z M 6.828125 -11 "/></g></g></g><g fill="#2e2f38" fill-opacity="1"><g transform="translate(243.687822, 245.564504)"><g/></g></g><g fill="#2e2f38" fill-opacity="1"><g transform="translate(251.370781, 245.564504)"><g><path d="M 2.28125 -21.109375 L 9.640625 -21.109375 C 12.515625 -21.109375 14.644531 -20.679688 16.03125 -19.828125 C 17.425781 -18.984375 18.125 -17.660156 18.125 -15.859375 C 18.125 -14.671875 17.820312 -13.65625 17.21875 -12.8125 C 16.613281 -11.976562 15.8125 -11.441406 14.8125 -11.203125 L 14.8125 -11.0625 C 16.125 -10.71875 17.070312 -10.140625 17.65625 -9.328125 C 18.25 -8.515625 18.546875 -7.46875 18.546875 -6.1875 C 18.546875 -4.269531 17.820312 -2.757812 16.375 -1.65625 C 14.9375 -0.550781 12.976562 0 10.5 0 L 2.28125 0 Z M 7.984375 -13.015625 L 9.703125 -13.015625 C 10.523438 -13.015625 11.160156 -13.179688 11.609375 -13.515625 C 12.054688 -13.859375 12.28125 -14.359375 12.28125 -15.015625 C 12.28125 -16.203125 11.382812 -16.796875 9.59375 -16.796875 L 7.984375 -16.796875 Z M 7.984375 -8.84375 L 7.984375 -4.40625 L 10 -4.40625 C 11.78125 -4.40625 12.671875 -5.15625 12.671875 -6.65625 C 12.671875 -7.363281 12.429688 -7.90625 11.953125 -8.28125 C 11.472656 -8.65625 10.78125 -8.84375 9.875 -8.84375 Z M 7.984375 -8.84375 "/></g></g></g><g fill="#2e2f38" fill-opacity="1"><g transform="translate(271.300261, 245.564504)"><g><path d="M 7.59375 0 L 1.953125 0 L 1.953125 -22.46875 L 7.59375 -22.46875 Z M 7.59375 0 "/></g></g></g><g fill="#2e2f38" fill-opacity="1"><g transform="translate(280.860634, 245.564504)"><g><path d="M 17.578125 -8.21875 C 17.578125 -5.539062 16.859375 -3.453125 15.421875 -1.953125 C 13.984375 -0.460938 11.96875 0.28125 9.375 0.28125 C 6.882812 0.28125 4.90625 -0.476562 3.4375 -2 C 1.96875 -3.53125 1.234375 -5.601562 1.234375 -8.21875 C 1.234375 -10.882812 1.953125 -12.957031 3.390625 -14.4375 C 4.835938 -15.914062 6.859375 -16.65625 9.453125 -16.65625 C 11.066406 -16.65625 12.488281 -16.3125 13.71875 -15.625 C 14.945312 -14.9375 15.894531 -13.957031 16.5625 -12.6875 C 17.238281 -11.414062 17.578125 -9.925781 17.578125 -8.21875 Z M 6.96875 -8.21875 C 6.96875 -6.8125 7.15625 -5.738281 7.53125 -5 C 7.914062 -4.269531 8.550781 -3.90625 9.4375 -3.90625 C 10.3125 -3.90625 10.925781 -4.269531 11.28125 -5 C 11.644531 -5.738281 11.828125 -6.8125 11.828125 -8.21875 C 11.828125 -9.613281 11.644531 -10.664062 11.28125 -11.375 C 10.914062 -12.09375 10.289062 -12.453125 9.40625 -12.453125 C 8.539062 -12.453125 7.914062 -12.097656 7.53125 -11.390625 C 7.15625 -10.679688 6.96875 -9.625 6.96875 -8.21875 Z M 6.96875 -8.21875 "/></g></g></g><g fill="#2e2f38" fill-opacity="1"><g transform="translate(299.706997, 245.564504)"><g><path d="M 17.390625 -16.359375 L 17.390625 -13.640625 L 15.15625 -12.8125 C 15.457031 -12.25 15.609375 -11.597656 15.609375 -10.859375 C 15.609375 -9.097656 14.988281 -7.726562 13.75 -6.75 C 12.519531 -5.78125 10.675781 -5.296875 8.21875 -5.296875 C 7.613281 -5.296875 7.132812 -5.335938 6.78125 -5.421875 C 6.644531 -5.171875 6.578125 -4.929688 6.578125 -4.703125 C 6.578125 -4.429688 6.800781 -4.21875 7.25 -4.0625 C 7.695312 -3.914062 8.289062 -3.84375 9.03125 -3.84375 L 11.734375 -3.84375 C 15.410156 -3.84375 17.25 -2.296875 17.25 0.796875 C 17.25 2.785156 16.394531 4.332031 14.6875 5.4375 C 12.988281 6.550781 10.601562 7.109375 7.53125 7.109375 C 5.21875 7.109375 3.429688 6.71875 2.171875 5.9375 C 0.910156 5.164062 0.28125 4.050781 0.28125 2.59375 C 0.28125 0.644531 1.492188 -0.613281 3.921875 -1.1875 C 3.421875 -1.394531 2.984375 -1.734375 2.609375 -2.203125 C 2.242188 -2.679688 2.0625 -3.148438 2.0625 -3.609375 C 2.0625 -4.117188 2.203125 -4.566406 2.484375 -4.953125 C 2.765625 -5.347656 3.347656 -5.816406 4.234375 -6.359375 C 3.378906 -6.734375 2.707031 -7.316406 2.21875 -8.109375 C 1.738281 -8.910156 1.5 -9.882812 1.5 -11.03125 C 1.5 -12.8125 2.101562 -14.191406 3.3125 -15.171875 C 4.53125 -16.160156 6.265625 -16.65625 8.515625 -16.65625 C 8.816406 -16.65625 9.332031 -16.617188 10.0625 -16.546875 C 10.789062 -16.484375 11.332031 -16.421875 11.6875 -16.359375 Z M 5.0625 2.03125 C 5.0625 2.5 5.3125 2.875 5.8125 3.15625 C 6.3125 3.4375 6.976562 3.578125 7.8125 3.578125 C 9.175781 3.578125 10.269531 3.40625 11.09375 3.0625 C 11.914062 2.726562 12.328125 2.289062 12.328125 1.75 C 12.328125 1.3125 12.078125 1.003906 11.578125 0.828125 C 11.078125 0.648438 10.363281 0.5625 9.4375 0.5625 L 7.21875 0.5625 C 6.613281 0.5625 6.101562 0.703125 5.6875 0.984375 C 5.269531 1.273438 5.0625 1.625 5.0625 2.03125 Z M 6.828125 -11 C 6.828125 -9.320312 7.410156 -8.484375 8.578125 -8.484375 C 9.117188 -8.484375 9.535156 -8.691406 9.828125 -9.109375 C 10.117188 -9.523438 10.265625 -10.144531 10.265625 -10.96875 C 10.265625 -12.664062 9.703125 -13.515625 8.578125 -13.515625 C 7.410156 -13.515625 6.828125 -12.675781 6.828125 -11 Z M 6.828125 -11 "/></g></g></g><g fill="#80cc28" fill-opacity="1"><g transform="translate(178.198971, 212.906909)"><g><path d="M 10.609375 0 L 9.234375 0 L 9.234375 -5.5625 L 3 -5.5625 L 3 0 L 1.625 0 L 1.625 -11.828125 L 3 -11.828125 L 3 -6.796875 L 9.234375 -6.796875 L 9.234375 -11.828125 L 10.609375 -11.828125 Z M 10.609375 0 "/></g></g></g><g fill="#80cc28" fill-opacity="1"><g transform="translate(190.414009, 212.906909)"><g><path d="M 5.171875 0.15625 C 3.859375 0.15625 2.820312 -0.238281 2.0625 -1.03125 C 1.3125 -1.832031 0.9375 -2.941406 0.9375 -4.359375 C 0.9375 -5.785156 1.285156 -6.921875 1.984375 -7.765625 C 2.691406 -8.609375 3.632812 -9.03125 4.8125 -9.03125 C 5.925781 -9.03125 6.804688 -8.660156 7.453125 -7.921875 C 8.097656 -7.191406 8.421875 -6.226562 8.421875 -5.03125 L 8.421875 -4.1875 L 2.328125 -4.1875 C 2.347656 -3.144531 2.609375 -2.351562 3.109375 -1.8125 C 3.609375 -1.28125 4.3125 -1.015625 5.21875 -1.015625 C 6.164062 -1.015625 7.109375 -1.210938 8.046875 -1.609375 L 8.046875 -0.40625 C 7.566406 -0.207031 7.113281 -0.0664062 6.6875 0.015625 C 6.269531 0.109375 5.765625 0.15625 5.171875 0.15625 Z M 4.796875 -7.90625 C 4.085938 -7.90625 3.519531 -7.671875 3.09375 -7.203125 C 2.675781 -6.742188 2.429688 -6.101562 2.359375 -5.28125 L 6.984375 -5.28125 C 6.984375 -6.125 6.796875 -6.769531 6.421875 -7.21875 C 6.046875 -7.675781 5.503906 -7.90625 4.796875 -7.90625 Z M 4.796875 -7.90625 "/></g></g></g><g fill="#80cc28" fill-opacity="1"><g transform="translate(199.702611, 212.906909)"><g><path d="M 6.875 0 L 6.609375 -1.265625 L 6.546875 -1.265625 C 6.097656 -0.703125 5.65625 -0.320312 5.21875 -0.125 C 4.78125 0.0625 4.234375 0.15625 3.578125 0.15625 C 2.691406 0.15625 2 -0.0664062 1.5 -0.515625 C 1.007812 -0.972656 0.765625 -1.617188 0.765625 -2.453125 C 0.765625 -4.242188 2.191406 -5.179688 5.046875 -5.265625 L 6.5625 -5.3125 L 6.5625 -5.859375 C 6.5625 -6.554688 6.410156 -7.070312 6.109375 -7.40625 C 5.804688 -7.738281 5.328125 -7.90625 4.671875 -7.90625 C 3.929688 -7.90625 3.097656 -7.675781 2.171875 -7.21875 L 1.75 -8.25 C 2.1875 -8.488281 2.664062 -8.675781 3.1875 -8.8125 C 3.707031 -8.945312 4.226562 -9.015625 4.75 -9.015625 C 5.8125 -9.015625 6.597656 -8.78125 7.109375 -8.3125 C 7.617188 -7.84375 7.875 -7.085938 7.875 -6.046875 L 7.875 0 Z M 3.84375 -0.953125 C 4.675781 -0.953125 5.332031 -1.179688 5.8125 -1.640625 C 6.289062 -2.097656 6.53125 -2.738281 6.53125 -3.5625 L 6.53125 -4.359375 L 5.1875 -4.296875 C 4.113281 -4.265625 3.34375 -4.097656 2.875 -3.796875 C 2.40625 -3.503906 2.171875 -3.050781 2.171875 -2.4375 C 2.171875 -1.945312 2.316406 -1.578125 2.609375 -1.328125 C 2.898438 -1.078125 3.3125 -0.953125 3.84375 -0.953125 Z M 3.84375 -0.953125 "/></g></g></g><g fill="#80cc28" fill-opacity="1"><g transform="translate(208.910373, 212.906909)"><g><path d="M 2.765625 0 L 1.421875 0 L 1.421875 -12.578125 L 2.765625 -12.578125 Z M 2.765625 0 "/></g></g></g><g fill="#80cc28" fill-opacity="1"><g transform="translate(213.097924, 212.906909)"><g><path d="M 4.28125 -0.953125 C 4.519531 -0.953125 4.75 -0.96875 4.96875 -1 C 5.195312 -1.03125 5.375 -1.066406 5.5 -1.109375 L 5.5 -0.078125 C 5.351562 -0.00390625 5.140625 0.0507812 4.859375 0.09375 C 4.578125 0.132812 4.320312 0.15625 4.09375 0.15625 C 2.375 0.15625 1.515625 -0.742188 1.515625 -2.546875 L 1.515625 -7.8125 L 0.25 -7.8125 L 0.25 -8.46875 L 1.515625 -9.03125 L 2.09375 -10.921875 L 2.859375 -10.921875 L 2.859375 -8.859375 L 5.4375 -8.859375 L 5.4375 -7.8125 L 2.859375 -7.8125 L 2.859375 -2.609375 C 2.859375 -2.066406 2.984375 -1.65625 3.234375 -1.375 C 3.492188 -1.09375 3.84375 -0.953125 4.28125 -0.953125 Z M 4.28125 -0.953125 "/></g></g></g><g fill="#80cc28" fill-opacity="1"><g transform="translate(218.94271, 212.906909)"><g><path d="M 7.484375 0 L 7.484375 -5.734375 C 7.484375 -6.453125 7.316406 -6.988281 6.984375 -7.34375 C 6.660156 -7.707031 6.148438 -7.890625 5.453125 -7.890625 C 4.515625 -7.890625 3.832031 -7.632812 3.40625 -7.125 C 2.976562 -6.613281 2.765625 -5.785156 2.765625 -4.640625 L 2.765625 0 L 1.421875 0 L 1.421875 -12.578125 L 2.765625 -12.578125 L 2.765625 -8.78125 C 2.765625 -8.320312 2.742188 -7.941406 2.703125 -7.640625 L 2.78125 -7.640625 C 3.039062 -8.054688 3.414062 -8.390625 3.90625 -8.640625 C 4.394531 -8.890625 4.953125 -9.015625 5.578125 -9.015625 C 6.660156 -9.015625 7.472656 -8.753906 8.015625 -8.234375 C 8.554688 -7.722656 8.828125 -6.90625 8.828125 -5.78125 L 8.828125 0 Z M 7.484375 0 "/></g></g></g><g fill="#80cc28" fill-opacity="1"><g transform="translate(229.104393, 212.906909)"><g><path d="M 0.015625 -8.859375 L 1.453125 -8.859375 L 3.390625 -3.8125 C 3.816406 -2.65625 4.082031 -1.820312 4.1875 -1.3125 L 4.25 -1.3125 C 4.320312 -1.582031 4.46875 -2.050781 4.6875 -2.71875 C 4.914062 -3.382812 5.648438 -5.429688 6.890625 -8.859375 L 8.328125 -8.859375 L 4.515625 1.234375 C 4.140625 2.222656 3.695312 2.925781 3.1875 3.34375 C 2.6875 3.769531 2.070312 3.984375 1.34375 3.984375 C 0.9375 3.984375 0.53125 3.9375 0.125 3.84375 L 0.125 2.765625 C 0.425781 2.828125 0.757812 2.859375 1.125 2.859375 C 2.039062 2.859375 2.695312 2.34375 3.09375 1.3125 L 3.59375 0.046875 Z M 0.015625 -8.859375 "/></g></g></g><g fill="#80cc28" fill-opacity="1"><g transform="translate(237.447158, 212.906909)"><g/></g></g><g fill="#80cc28" fill-opacity="1"><g transform="translate(241.747886, 212.906909)"><g><path d="M 3 0 L 1.625 0 L 1.625 -11.828125 L 8.21875 -11.828125 L 8.21875 -10.609375 L 3 -10.609375 L 3 -6.28125 L 7.90625 -6.28125 L 7.90625 -5.046875 L 3 -5.046875 Z M 3 0 "/></g></g></g><g fill="#80cc28" fill-opacity="1"><g transform="translate(250.292754, 212.906909)"><g><path d="M 9.078125 -4.4375 C 9.078125 -2.988281 8.710938 -1.859375 7.984375 -1.046875 C 7.253906 -0.242188 6.25 0.15625 4.96875 0.15625 C 4.175781 0.15625 3.472656 -0.0234375 2.859375 -0.390625 C 2.242188 -0.765625 1.769531 -1.300781 1.4375 -2 C 1.101562 -2.695312 0.9375 -3.507812 0.9375 -4.4375 C 0.9375 -5.882812 1.296875 -7.007812 2.015625 -7.8125 C 2.734375 -8.625 3.734375 -9.03125 5.015625 -9.03125 C 6.253906 -9.03125 7.238281 -8.613281 7.96875 -7.78125 C 8.707031 -6.957031 9.078125 -5.84375 9.078125 -4.4375 Z M 2.328125 -4.4375 C 2.328125 -3.300781 2.550781 -2.4375 3 -1.84375 C 3.445312 -1.257812 4.113281 -0.96875 5 -0.96875 C 5.875 -0.96875 6.539062 -1.257812 7 -1.84375 C 7.457031 -2.4375 7.6875 -3.300781 7.6875 -4.4375 C 7.6875 -5.5625 7.457031 -6.414062 7 -7 C 6.539062 -7.59375 5.867188 -7.890625 4.984375 -7.890625 C 4.097656 -7.890625 3.429688 -7.597656 2.984375 -7.015625 C 2.546875 -6.441406 2.328125 -5.582031 2.328125 -4.4375 Z M 2.328125 -4.4375 "/></g></g></g><g fill="#80cc28" fill-opacity="1"><g transform="translate(260.292755, 212.906909)"><g><path d="M 9.078125 -4.4375 C 9.078125 -2.988281 8.710938 -1.859375 7.984375 -1.046875 C 7.253906 -0.242188 6.25 0.15625 4.96875 0.15625 C 4.175781 0.15625 3.472656 -0.0234375 2.859375 -0.390625 C 2.242188 -0.765625 1.769531 -1.300781 1.4375 -2 C 1.101562 -2.695312 0.9375 -3.507812 0.9375 -4.4375 C 0.9375 -5.882812 1.296875 -7.007812 2.015625 -7.8125 C 2.734375 -8.625 3.734375 -9.03125 5.015625 -9.03125 C 6.253906 -9.03125 7.238281 -8.613281 7.96875 -7.78125 C 8.707031 -6.957031 9.078125 -5.84375 9.078125 -4.4375 Z M 2.328125 -4.4375 C 2.328125 -3.300781 2.550781 -2.4375 3 -1.84375 C 3.445312 -1.257812 4.113281 -0.96875 5 -0.96875 C 5.875 -0.96875 6.539062 -1.257812 7 -1.84375 C 7.457031 -2.4375 7.6875 -3.300781 7.6875 -4.4375 C 7.6875 -5.5625 7.457031 -6.414062 7 -7 C 6.539062 -7.59375 5.867188 -7.890625 4.984375 -7.890625 C 4.097656 -7.890625 3.429688 -7.597656 2.984375 -7.015625 C 2.546875 -6.441406 2.328125 -5.582031 2.328125 -4.4375 Z M 2.328125 -4.4375 "/></g></g></g><g fill="#80cc28" fill-opacity="1"><g transform="translate(270.292756, 212.906909)"><g><path d="M 7.453125 -1.1875 L 7.390625 -1.1875 C 6.765625 -0.289062 5.835938 0.15625 4.609375 0.15625 C 3.441406 0.15625 2.535156 -0.238281 1.890625 -1.03125 C 1.253906 -1.820312 0.9375 -2.945312 0.9375 -4.40625 C 0.9375 -5.863281 1.257812 -7 1.90625 -7.8125 C 2.550781 -8.625 3.453125 -9.03125 4.609375 -9.03125 C 5.804688 -9.03125 6.726562 -8.59375 7.375 -7.71875 L 7.46875 -7.71875 L 7.421875 -8.359375 L 7.390625 -8.984375 L 7.390625 -12.578125 L 8.71875 -12.578125 L 8.71875 0 L 7.640625 0 Z M 4.765625 -0.96875 C 5.679688 -0.96875 6.347656 -1.210938 6.765625 -1.703125 C 7.179688 -2.203125 7.390625 -3.007812 7.390625 -4.125 L 7.390625 -4.40625 C 7.390625 -5.664062 7.175781 -6.5625 6.75 -7.09375 C 6.332031 -7.632812 5.664062 -7.90625 4.75 -7.90625 C 3.96875 -7.90625 3.367188 -7.597656 2.953125 -6.984375 C 2.535156 -6.367188 2.328125 -5.503906 2.328125 -4.390625 C 2.328125 -3.253906 2.53125 -2.398438 2.9375 -1.828125 C 3.351562 -1.253906 3.960938 -0.96875 4.765625 -0.96875 Z M 4.765625 -0.96875 "/></g></g></g></svg>